<svg width="379" height="229" viewBox="0 0 379 229" fill="none" xmlns="http://www.w3.org/2000/svg">
<path d="M67.1994 41.4941L98.4826 97.6239C99.9131 100.19 97.1952 103.036 94.2448 102.066L22.8183 78.6562C20.3418 77.8419 19.7159 74.889 21.6829 73.2851L61.8261 40.5728C63.5159 39.1992 66.1623 39.6516 67.1905 41.5023L67.1994 41.4941Z" fill="#222429"/>
<path d="M53.8336 63.5358C37.9908 63.5358 25.1074 51.6748 25.1074 37.1077C25.1074 22.5407 37.9998 10.6797 53.8336 10.6797C69.6674 10.6797 82.5597 22.5407 82.5597 37.1077C82.5597 51.6748 69.6674 63.5358 53.8336 63.5358ZM53.8336 16.1495C41.272 16.1495 31.0529 25.5511 31.0529 37.1077C31.0529 48.6644 41.272 58.0659 53.8336 58.0659C66.3951 58.0659 76.6142 48.6644 76.6142 37.1077C76.6142 25.5511 66.3951 16.1495 53.8336 16.1495Z" fill="#9FA1A5"/>
<path d="M20.5293 109.4V209.215C20.5293 212.398 23.3277 214.972 26.7877 214.972H174.004C178.206 214.972 181.219 211.238 179.994 207.537C175.836 195.009 164.589 170.49 139.091 164.485C105.992 156.696 91.8574 149.293 66.627 124.584C51.4817 109.754 36.4972 105.139 27.8964 103.733C24.0608 103.099 20.5293 105.814 20.5293 109.4Z" fill="#CBD0D3"/>
<path d="M334.104 186.467C321.569 167.351 265.556 154.717 208.98 158.254C152.404 161.791 116.704 180.158 129.23 199.274C141.765 218.389 197.778 231.023 254.354 227.486C310.93 223.95 346.63 205.582 334.104 186.467Z" fill="#222429"/>
<mask id="mask0_1425_31720" style="mask-type:luminance" maskUnits="userSpaceOnUse" x="126" y="157" width="211" height="72">
<path d="M334.104 186.467C321.569 167.351 265.556 154.717 208.98 158.254C152.404 161.791 116.704 180.158 129.23 199.274C141.765 218.389 197.778 231.023 254.354 227.486C310.93 223.95 346.63 205.582 334.104 186.467Z" fill="white"/>
</mask>
<g mask="url(#mask0_1425_31720)">
<path d="M334.104 186.471C321.569 167.355 265.556 154.721 208.98 158.258C152.404 161.794 116.704 180.162 129.23 199.277C141.765 218.393 197.778 231.027 254.354 227.49C310.93 223.953 346.63 205.586 334.104 186.471Z" fill="#0F1E2E"/>
<path d="M148.828 266.896C147.729 266.896 146.674 266.336 146.155 265.366C145.431 264.009 146.039 262.372 147.514 261.706C183.366 245.526 217.885 226.09 251.27 207.295C266.621 198.65 282.499 189.717 298.351 181.179C308.284 175.825 317.591 170.33 322.258 161.949C323.143 160.353 323.456 159.152 323.161 158.379C322.526 156.668 318.896 156.38 315.722 156.684C280.693 159.991 244.35 172.049 205.109 193.427C206.513 196.421 207.023 199.941 206.45 203.495C205.503 209.368 202.007 214.443 199.074 218.21C186.289 234.611 167.684 246.859 146.683 252.699C144.751 253.234 138.868 254.87 135.06 251.416C131.609 248.282 132.056 243.19 136.267 237.803C149.168 221.27 167.639 208.956 184.018 199.094C188.212 196.569 192.369 194.143 196.5 191.815C192.816 189.339 187.335 189.668 182.463 190.31C156.776 193.698 132.655 203.569 112.708 218.852C111.448 219.822 109.57 219.658 108.515 218.498C107.46 217.338 107.639 215.611 108.9 214.64C119.172 206.769 130.661 200.213 143.026 195.146C155.391 190.087 168.381 186.633 181.613 184.889C187.675 184.091 194.595 183.762 200.004 187.398C200.657 187.834 201.265 188.319 201.828 188.854C241.918 166.974 279.138 154.636 315.115 151.239C317.046 151.058 319.898 150.976 322.491 151.618C326.532 152.621 328.15 154.883 328.785 156.61C330.036 159.974 328.159 163.339 327.542 164.449C322.142 174.147 312.066 180.135 301.346 185.909C285.539 194.422 269.696 203.347 254.363 211.975C220.863 230.836 186.218 250.338 150.125 266.633C149.704 266.822 149.257 266.912 148.819 266.912L148.828 266.896ZM199.942 196.281C195.757 198.634 191.538 201.093 187.282 203.659C171.368 213.25 153.433 225.185 141.104 240.986C139.298 243.297 137.948 246.332 139.244 247.509C140.084 248.274 142.06 248.249 144.957 247.443C164.707 241.948 182.212 230.433 194.238 215.002C196.786 211.737 199.799 207.385 200.559 202.672C200.88 200.69 200.72 198.37 199.933 196.273L199.942 196.281Z" fill="#E5E7EB"/>
<path d="M256.955 219.55C253.406 219.55 250.16 218.275 248.202 216.079C245.592 213.151 245.288 208.726 247.434 204.802C249.159 201.636 252.083 199.291 254.434 197.416C277.814 178.679 302.177 160.418 326.835 143.129C328.14 142.216 330.009 142.446 331.001 143.647C331.994 144.848 331.743 146.567 330.438 147.48C305.878 164.696 281.622 182.89 258.332 201.545C256.276 203.19 253.942 205.057 252.744 207.262C251.886 208.841 251.528 211.185 252.798 212.608C253.656 213.571 255.355 214.13 257.232 214.072C259.235 214.007 261.238 213.365 263.652 212.542C295.06 201.792 325.235 187.093 354.417 172.888C355.865 172.181 357.671 172.691 358.44 174.023C359.209 175.356 358.655 177.017 357.206 177.724C327.854 192.02 297.501 206.793 265.735 217.675C262.91 218.637 260.344 219.452 257.456 219.542C257.286 219.542 257.125 219.55 256.955 219.55Z" fill="#E5E7EB"/>
<path d="M250.16 255.084C249.365 255.084 248.578 254.796 247.997 254.22C246.87 253.118 246.933 251.39 248.122 250.354C286.271 217.346 329.159 189.33 375.615 167.081C377.072 166.381 378.869 166.9 379.629 168.249C380.389 169.589 379.826 171.243 378.368 171.942C332.405 193.961 289.955 221.68 252.208 254.343C251.635 254.837 250.902 255.084 250.169 255.084H250.16Z" fill="#E5E7EB"/>
</g>
<path d="M98.3759 225.084C104.578 225.084 109.605 220.459 109.605 214.753C109.605 209.047 104.578 204.422 98.3759 204.422C92.1741 204.422 87.1465 209.047 87.1465 214.753C87.1465 220.459 92.1741 225.084 98.3759 225.084Z" fill="#9FA1A5"/>
<path d="M117.848 21.0634L147.898 32.6611C151.519 34.0594 153.173 37.9253 151.555 41.2155C146.449 51.6205 136.248 72.3567 133.548 77.2919C129.48 84.7276 132.735 90.8308 135.917 92.0646C140.415 93.8084 145.761 93.5452 154.031 84.0778C161.961 74.997 174.505 60.907 197.67 58.2831C217.858 55.9964 239.682 67.0349 246.477 84.1354C251.09 95.7496 247.308 119.036 245.985 128.84C244.215 141.976 258.86 143.004 264.054 133.463C269.383 123.666 280.004 103.169 285.056 93.3889C286.629 90.3373 290.509 88.939 293.925 90.181L321.56 100.282C325.208 101.614 326.942 105.455 325.387 108.779C319.835 120.639 307.702 146.525 303.455 155.12C294.863 172.517 275.641 186.977 250.098 185.044C221.336 182.872 209.302 162.589 206.262 153.319C203.222 144.049 202.695 133.956 203.75 120.327C204.769 107.216 194.219 106.722 189.203 112.908C183.079 120.45 178.126 126.076 162.489 134.927C145.296 144.658 115.846 141.581 100.11 127.467C84.3748 113.352 76.3015 93.1503 86.0914 68.3427C93.4853 49.6053 103.937 32.0031 109.096 23.7695C110.848 20.9729 114.594 19.8131 117.831 21.0634H117.848Z" fill="#F8FAFE"/>
<path d="M173.985 93.2623C184.29 93.2623 192.644 85.5767 192.644 76.096C192.644 66.6153 184.29 58.9297 173.985 58.9297C163.68 58.9297 155.326 66.6153 155.326 76.096C155.326 85.5767 163.68 93.2623 173.985 93.2623Z" fill="#CBD0D3"/>
<path d="M117.678 125.276V111.836C117.678 110.322 115.577 109.697 114.612 110.923C111.625 114.731 106.663 120.258 100.646 123.91H26.7344C12.0629 123.91 0.171875 134.85 0.171875 148.348V153.842C0.171875 167.34 12.0629 178.28 26.7344 178.28H108.89C123.561 178.28 135.452 167.34 135.452 153.842V148.348C135.452 137.688 128.031 128.624 117.678 125.284V125.276Z" fill="#9FA1A5"/>
<path d="M101.04 160.341H34.0573C32.4122 160.341 31.0801 159.116 31.0801 157.602C31.0801 156.089 32.4122 154.863 34.0573 154.863H101.04C102.685 154.863 104.018 156.089 104.018 157.602C104.018 159.116 102.685 160.341 101.04 160.341Z" fill="white"/>
<path d="M101.04 147.31H88.9967C87.3517 147.31 86.0195 146.085 86.0195 144.571C86.0195 143.058 87.3517 141.832 88.9967 141.832H101.04C102.685 141.832 104.017 143.058 104.017 144.571C104.017 146.085 102.685 147.31 101.04 147.31Z" fill="white"/>
<path d="M74.0925 147.31H34.0475C32.4025 147.31 31.0703 146.085 31.0703 144.571C31.0703 143.058 32.4025 141.832 34.0475 141.832H74.0925C75.7376 141.832 77.0697 143.058 77.0697 144.571C77.0697 146.085 75.7376 147.31 74.0925 147.31Z" fill="white"/>
<path d="M333.36 156.064C332.278 156.064 331.232 155.513 330.705 154.567C329.963 153.218 330.544 151.573 332.01 150.891C343.088 145.725 347.263 138.692 344.42 129.99C343.839 128.221 342.766 126.642 341.389 125.219C339.797 125.293 338.197 125.334 336.606 125.334C326.208 125.334 315.837 123.714 305.948 120.49C303.901 119.823 299.869 117.701 299.216 114.444C299.01 113.416 298.993 111.442 301.219 109.698C302.399 108.777 303.731 108.365 305.001 108.069C313.441 106.062 326.252 109.04 333.28 112.947L333.593 113.12C336.865 114.938 340.548 116.986 343.678 119.593C346.977 119.346 350.258 118.919 353.521 118.31C358.474 117.397 367.352 114.896 371.09 108.472C373.843 103.735 373.128 97.6314 369.212 92.5399C365.225 87.3497 358.698 83.2946 349.391 80.243C347.29 82.6119 344.411 84.4708 340.87 85.7293C336.99 87.103 332.573 87.6952 328.139 87.6952C320.647 87.6952 313.083 86.0172 307.942 83.6483C304.223 81.9374 302.524 78.9681 303.704 76.2702C304.688 74.0247 307.209 73.2515 308.157 72.9636C318.099 69.912 329.793 69.7557 341.961 72.5112C343.588 72.8813 345.162 73.2679 346.673 73.6792C348.971 67.7569 344.509 60.8147 338.778 57.4506C332.126 53.5517 323.517 52.6799 315.917 51.9067C314.281 51.7422 313.11 50.385 313.289 48.888C313.467 47.3827 314.943 46.3052 316.57 46.4697C324.813 47.3087 334.156 48.2546 341.97 52.8361C349.552 57.2778 355.64 66.63 352.314 75.3983C362.328 78.82 369.48 83.4262 374.049 89.3731C379.279 96.1673 380.146 104.475 376.32 111.047C374.308 114.502 371.134 117.38 366.888 119.618C363.419 121.444 359.306 122.809 354.675 123.665C352.556 124.059 350.419 124.38 348.282 124.635C349.033 125.795 349.659 127.045 350.097 128.402C353.79 139.688 348.309 149.402 334.683 155.76C334.254 155.957 333.789 156.056 333.342 156.056L333.36 156.064ZM305.296 113.737C305.805 114.271 306.95 115.012 307.933 115.332C316.373 118.08 325.197 119.585 334.084 119.823C332.895 119.124 331.688 118.458 330.517 117.8L330.204 117.627C324.303 114.345 313.11 111.787 306.494 113.367C306.226 113.432 305.662 113.564 305.305 113.737H305.296ZM309.757 78.2525C309.981 78.417 310.267 78.5979 310.615 78.7542C317.75 82.0444 330.222 83.6401 338.725 80.6214C340.379 80.0374 341.8 79.2971 342.998 78.4088C342.202 78.2113 341.389 78.0139 340.557 77.8248C329.48 75.316 318.93 75.4312 310.052 78.1538C309.945 78.1867 309.846 78.2196 309.757 78.2443V78.2525Z" fill="#222429"/>
<path d="M275.352 1.22839L205.579 12.143C201.52 12.7781 198.788 16.3208 199.478 20.0558L208.018 66.2607C208.708 69.9958 212.559 72.5087 216.619 71.8737L286.391 60.959C290.451 60.3239 293.183 56.7813 292.492 53.0462L283.953 6.84134C283.262 3.10631 279.412 0.593307 275.352 1.22839Z" fill="#9FA1A5"/>
<path d="M248.335 39.2983C248.048 39.2983 247.753 39.2572 247.467 39.1749L208.272 28.1612C206.698 27.717 205.813 26.1871 206.296 24.7476C206.779 23.3 208.442 22.4857 210.006 22.9299L249.202 33.9436C250.775 34.3878 251.66 35.9177 251.178 37.3571C250.784 38.5333 249.604 39.2983 248.335 39.2983Z" fill="white"/>
<path d="M248.334 39.2979C247.53 39.2979 246.734 39.0018 246.153 38.4178C245.035 37.3074 245.107 35.58 246.314 34.5519L273.52 11.4057C274.727 10.3776 276.604 10.4434 277.722 11.5538C278.84 12.6642 278.768 14.3915 277.561 15.4197L250.355 38.5658C249.783 39.0511 249.058 39.2897 248.334 39.2897V39.2979Z" fill="white"/>
<path d="M217.642 64.1802C217.177 64.1802 216.703 64.0815 216.265 63.8676C214.808 63.1685 214.244 61.5152 215.004 60.1745L230.928 32.1507C231.687 30.8099 233.485 30.2918 234.942 30.9909C236.399 31.6901 236.962 33.3434 236.202 34.6841L220.279 62.7079C219.752 63.6456 218.715 64.1802 217.642 64.1802Z" fill="white"/>
<path d="M282.962 51.9325C282.309 51.9325 281.656 51.7351 281.111 51.3321L254.736 31.9531C253.449 31.0072 253.243 29.2881 254.271 28.1037C255.299 26.9192 257.168 26.73 258.455 27.6759L284.83 47.0549C286.118 48.0008 286.323 49.7199 285.295 50.9043C284.705 51.5788 283.838 51.9325 282.971 51.9325H282.962Z" fill="white"/>
<path d="M175.586 136.423C167.557 136.423 161.021 130.41 161.021 123.024C161.021 115.638 167.557 109.625 175.586 109.625C183.614 109.625 190.15 115.638 190.15 123.024C190.15 130.41 183.614 136.423 175.586 136.423ZM175.586 115.095C170.838 115.095 166.967 118.648 166.967 123.024C166.967 127.4 170.829 130.953 175.586 130.953C180.342 130.953 184.204 127.4 184.204 123.024C184.204 118.648 180.342 115.095 175.586 115.095Z" fill="#CBD0D3"/>
</svg>
