<svg width="24" height="24" viewBox="0 0 24 24" fill="none" xmlns="http://www.w3.org/2000/svg">
<path fill-rule="evenodd" clip-rule="evenodd" d="M10 15C9.44772 15 9 15.4477 9 16C9 16.5523 9.44772 17 10 17C10.5523 17 11 16.5523 11 16C11 15.4477 10.5523 15 10 15ZM13 16C13 15.4477 13.4477 15 14 15C14.5523 15 15 15.4477 15 16C15 16.5523 14.5523 17 14 17C13.4477 17 13 16.5523 13 16ZM14 11C13.4477 11 13 11.4477 13 12C13 12.5523 13.4477 13 14 13C14.5523 13 15 12.5523 15 12C15 11.4477 14.5523 11 14 11ZM14 7C13.4477 7 13 7.44771 13 8C13 8.55228 13.4477 9 14 9C14.5523 9 15 8.55228 15 8C15 7.44772 14.5523 7 14 7ZM9 12C9 11.4477 9.44772 11 10 11C10.5523 11 11 11.4477 11 12C11 12.5523 10.5523 13 10 13C9.44772 13 9 12.5523 9 12ZM10 7C9.44772 7 9 7.44771 9 8C9 8.55228 9.44772 9 10 9C10.5523 9 11 8.55229 11 8C11 7.44772 10.5523 7 10 7Z" fill="#3F3F46"/>
</svg>
