<svg width="24" height="24" viewBox="0 0 24 24" fill="none" xmlns="http://www.w3.org/2000/svg">
<path fill-rule="evenodd" clip-rule="evenodd" d="M18.2407 5.87026L17.2857 4.82827C16.9165 4.42546 16.2924 4.39354 15.884 4.75657L14.3213 6.14595L16.6194 8.68301L18.1714 7.29013C18.5854 6.91852 18.6166 6.28042 18.2407 5.87026ZM5.5 13.9885L13.2002 7.14264L15.5031 9.68493L7.90674 16.5027H5.5V13.9885ZM19.3465 4.85678L18.3915 3.81479C17.4686 2.80777 15.9083 2.72795 14.8874 3.63555L4.33557 13.0166C4.12212 13.2064 4 13.4783 4 13.764V17.0027C4 17.555 4.44772 18.0027 5 18.0027H8.09822C8.34478 18.0027 8.58266 17.9116 8.76616 17.7469L19.1733 8.40645C20.2084 7.47742 20.2863 5.88217 19.3465 4.85678ZM20 19.5001H4V21.0001H20V19.5001Z" fill="#0E1117"/>
</svg>
