<svg width="20" height="20" viewBox="0 0 20 20" fill="none" xmlns="http://www.w3.org/2000/svg">
<path fill-rule="evenodd" clip-rule="evenodd" d="M2.05471 7.00412C2.3284 6.75783 2.74992 6.78005 2.99621 7.05373C4.86925 9.13515 7.18886 10.1663 10.0007 10.1663C12.8124 10.1663 15.1321 9.13515 17.0051 7.05373C17.2514 6.78005 17.6729 6.75783 17.9466 7.00412C18.2203 7.25041 18.2425 7.67194 17.9962 7.94563C15.8692 10.3092 13.1889 11.4997 10.0007 11.4997C6.81245 11.4997 4.13206 10.3092 2.0051 7.94563C1.75881 7.67194 1.78102 7.25041 2.05471 7.00412Z" fill="#9CA3AF"/>
<path fill-rule="evenodd" clip-rule="evenodd" d="M4.95047 8.77679C5.25806 8.97915 5.34337 9.39255 5.141 9.70014L3.05767 12.8668C2.85531 13.1744 2.44191 13.2597 2.13431 13.0573C1.82672 12.855 1.74142 12.4416 1.94378 12.134L4.02711 8.96732C4.22948 8.65973 4.64288 8.57443 4.95047 8.77679Z" fill="#9CA3AF"/>
<path fill-rule="evenodd" clip-rule="evenodd" d="M15.0554 8.77732C15.3627 8.57451 15.7762 8.65922 15.979 8.96652L18.0557 12.1132C18.2585 12.4205 18.1738 12.834 17.8665 13.0368C17.5592 13.2396 17.1457 13.1549 16.9429 12.8476L14.8662 9.70094C14.6634 9.39364 14.7481 8.98012 15.0554 8.77732Z" fill="#9CA3AF"/>
<path fill-rule="evenodd" clip-rule="evenodd" d="M8.00008 10.1722C8.36542 10.2179 8.62457 10.5511 8.57891 10.9164L8.16224 14.2498C8.11657 14.6151 7.78338 14.8742 7.41803 14.8286C7.05268 14.7829 6.79353 14.4497 6.8392 14.0844L7.25587 10.751C7.30154 10.3857 7.63473 10.1265 8.00008 10.1722Z" fill="#9CA3AF"/>
<path fill-rule="evenodd" clip-rule="evenodd" d="M12.0001 10.1722C12.3654 10.1265 12.6986 10.3857 12.7443 10.751L13.1609 14.0844C13.2066 14.4497 12.9475 14.7829 12.5821 14.8286C12.2168 14.8742 11.8836 14.6151 11.8379 14.2498L11.4212 10.9164C11.3756 10.5511 11.6347 10.2179 12.0001 10.1722Z" fill="#9CA3AF"/>
</svg>
