<svg width="20" height="20" viewBox="0 0 20 20" fill="none" xmlns="http://www.w3.org/2000/svg">
<path fill-rule="evenodd" clip-rule="evenodd" d="M8.35041 8.35041C8.78799 7.91283 9.38149 7.66699 10.0003 7.66699C10.6192 7.66699 11.2127 7.91283 11.6502 8.35041C12.0878 8.78799 12.3337 9.38149 12.3337 10.0003C12.3337 10.6192 12.0878 11.2127 11.6502 11.6502C11.2127 12.0878 10.6192 12.3337 10.0003 12.3337C9.38149 12.3337 8.78799 12.0878 8.35041 11.6502C7.91283 11.2127 7.66699 10.6192 7.66699 10.0003C7.66699 9.38149 7.91283 8.78799 8.35041 8.35041ZM10.0003 9.00033C9.73511 9.00033 9.48076 9.10568 9.29322 9.29322C9.10568 9.48076 9.00033 9.73511 9.00033 10.0003C9.00033 10.2655 9.10568 10.5199 9.29322 10.7074C9.48076 10.895 9.73511 11.0003 10.0003 11.0003C10.2655 11.0003 10.5199 10.895 10.7074 10.7074C10.895 10.5199 11.0003 10.2655 11.0003 10.0003C11.0003 9.73511 10.895 9.48076 10.7074 9.29322C10.5199 9.10568 10.2655 9.00033 10.0003 9.00033Z" fill="#9CA3AF"/>
<path fill-rule="evenodd" clip-rule="evenodd" d="M3.28281 9.99967C5.16054 12.9626 7.40163 14.333 9.99967 14.333C12.5977 14.333 14.8388 12.9626 16.7165 9.99967C14.8388 7.03671 12.5977 5.66634 9.99967 5.66634C7.40163 5.66634 5.16054 7.03671 3.28281 9.99967ZM1.92801 9.65668C4.0078 6.19036 6.69597 4.33301 9.99967 4.33301C13.3034 4.33301 15.9915 6.19036 18.0713 9.65668C18.198 9.8678 18.198 10.1316 18.0713 10.3427C15.9915 13.809 13.3034 15.6663 9.99967 15.6663C6.69597 15.6663 4.0078 13.809 1.92801 10.3427C1.80134 10.1316 1.80134 9.8678 1.92801 9.65668Z" fill="#9CA3AF"/>
</svg>
