<svg width="24" height="24" viewBox="0 0 24 24" fill="none" xmlns="http://www.w3.org/2000/svg">
<path fill-rule="evenodd" clip-rule="evenodd" d="M14.4345 5.75024H12C8.41015 5.75024 5.5 8.66039 5.5 12.2502C5.5 15.8401 8.41015 18.7502 12 18.7502C15.5899 18.7502 18.5 15.8401 18.5 12.2502H20C20 16.6685 16.4183 20.2502 12 20.2502C7.58172 20.2502 4 16.6685 4 12.2502C4 7.83197 7.58172 4.25024 12 4.25024H14.4393L12.2195 2.03039L13.2801 0.969727L16.7779 4.4675C17.0708 4.76039 17.0708 5.23526 16.7779 5.52816L13.2801 9.0259L12.2195 7.96524L14.4345 5.75024Z" fill="white"/>
</svg>
